<svg xmlns="http://www.w3.org/2000/svg" viewBox="0 0 640 400" role="img" aria-label="Ilustração de inspiração para carrinho cafeteria"><defs><linearGradient id="bg" x2="1" y2="1"><stop stop-color="#FFF0E1"/><stop offset="1" stop-color="#D5E7D9"/></linearGradient></defs><rect width="640" height="400" rx="26" fill="url(#bg)"/><circle cx="530" cy="70" r="49" fill="#FFFFFF" opacity=".48"/><path d="M0 340Q160 307 320 340T640 340V400H0Z" fill="#FFFFFF" opacity=".43"/><g transform="translate(83 50)"><path d="M50 125h415l-35 44H83z" fill="#E69A6F"/><path d="M74 125l25-80h316l25 80" fill="#FFE1B2"/><path d="M99 45h316l-12 38H111z" fill="#D66D61"/><path d="M135 45v38m70-38v38m70-38v38m70-38v38" stroke="#FFE1B2" stroke-width="23"/><rect x="92" y="169" width="345" height="112" rx="9" fill="#55A095"/><path d="M92 190h345" stroke="#3E817D" stroke-width="7"/><rect x="134" y="207" width="95" height="52" rx="8" fill="#F4DDB7"/><path d="M154 225h58m-58 16h42" stroke="#AD7862" stroke-width="5" stroke-linecap="round"/><circle cx="149" cy="298" r="28" fill="#3E5763"/><circle cx="379" cy="298" r="28" fill="#3E5763"/><circle cx="149" cy="298" r="10" fill="#D6D0BA"/><circle cx="379" cy="298" r="10" fill="#D6D0BA"/><path d="M302 142h42v28h-42z" fill="#F5F3DF"/><path d="M344 146q26 1 10 18h-10" fill="none" stroke="#F5F3DF" stroke-width="8"/><path d="M310 132q-8-12 0-23m17 23q-8-12 0-23" fill="none" stroke="#E8D9C7" stroke-width="4"/></g></svg>
