<svg xmlns="http://www.w3.org/2000/svg" viewBox="0 0 640 400" role="img" aria-label="Ilustração de inspiração para estacao trilha"><defs><linearGradient id="bg" x2="1" y2="1"><stop stop-color="#F4E8D5"/><stop offset="1" stop-color="#C7DFDC"/></linearGradient></defs><rect width="640" height="400" rx="26" fill="url(#bg)"/><circle cx="530" cy="70" r="49" fill="#FFFFFF" opacity=".48"/><path d="M0 340Q160 307 320 340T640 340V400H0Z" fill="#FFFFFF" opacity=".43"/><g transform="translate(89 50)"><path d="M110 91L260 14l152 77" fill="none" stroke="#695D55" stroke-width="25" stroke-linecap="round" stroke-linejoin="round"/><path d="M128 95h265l-27 205H154z" fill="#E8CBA1"/><path d="M128 95h265l-25 27H151z" fill="#B56757"/><path d="M151 125v171m216-171v171" stroke="#7B6858" stroke-width="15"/><rect x="185" y="150" width="143" height="91" rx="5" fill="#F6E6BE"/><path d="M211 165l31 18 24-16 39 20-26 32-38-10-23 16z" fill="#83A38B"/><circle cx="258" cy="185" r="6" fill="#D16D5B"/><path d="M258 190v16" stroke="#D16D5B" stroke-width="4"/><rect x="200" y="263" width="108" height="12" rx="3" fill="#795D4D"/><path d="M215 275v24m77-24v24" stroke="#795D4D" stroke-width="9"/><path d="M418 150v145" stroke="#6D634E" stroke-width="10"/><path d="M418 160h77l-25 19 25 19h-77z" fill="#E3A862"/><path d="M417 219h-70l24 17-24 17h70z" fill="#81A990"/></g></svg>
