<svg xmlns="http://www.w3.org/2000/svg" viewBox="0 0 640 400" role="img" aria-label="Ilustração de inspiração para quarto criativo"><defs><linearGradient id="bg" x2="1" y2="1"><stop stop-color="#F8EDE2"/><stop offset="1" stop-color="#DDDEE5"/></linearGradient></defs><rect width="640" height="400" rx="26" fill="url(#bg)"/><circle cx="530" cy="70" r="49" fill="#FFFFFF" opacity=".48"/><path d="M0 340Q160 307 320 340T640 340V400H0Z" fill="#FFFFFF" opacity=".43"/><g transform="translate(67 48)"><path d="M16 258h510" stroke="#C59A7B" stroke-width="11"/><rect x="315" y="38" width="154" height="181" rx="8" fill="#AD796B"/><path d="M315 95h154m-154 60h154" stroke="#6F5E5C" stroke-width="9"/><rect x="337" y="55" width="23" height="36" fill="#F1CA83"/><rect x="366" y="49" width="18" height="42" fill="#81A79E"/><rect x="395" y="62" width="43" height="29" rx="4" fill="#D8A879"/><path d="M337 113h37v39h-37z" fill="#8BA6C2"/><path d="M397 123h38v27h-38z" fill="#F2D9AE"/><rect x="63" y="167" width="260" height="17" rx="5" fill="#D3996D"/><path d="M80 184v74m222-74v74" stroke="#846459" stroke-width="13"/><rect x="108" y="93" width="98" height="72" rx="5" fill="#536D81"/><rect x="119" y="103" width="76" height="50" fill="#95C9C0"/><path d="M157 165v15" stroke="#536D81" stroke-width="9"/><rect x="227" y="130" width="43" height="35" rx="5" fill="#F0D6B3"/><path d="M236 130v-25m24 25v-31" stroke="#7B9D82" stroke-width="7" stroke-linecap="round"/><path d="M216 224h75v15h-75z" fill="#6A8193"/><path d="M231 239v30m45-30v30" stroke="#536779" stroke-width="10"/><path d="M215 200q37-30 76 0v27h-76z" fill="#E8AB77"/></g></svg>
