<svg xmlns="http://www.w3.org/2000/svg" viewBox="0 0 640 400" role="img" aria-label="Ilustração de inspiração para sala de controle"><defs><linearGradient id="bg" x2="1" y2="1"><stop stop-color="#E6EEF1"/><stop offset="1" stop-color="#E6D2BF"/></linearGradient></defs><rect width="640" height="400" rx="26" fill="url(#bg)"/><circle cx="530" cy="70" r="49" fill="#FFFFFF" opacity=".48"/><path d="M0 340Q160 307 320 340T640 340V400H0Z" fill="#FFFFFF" opacity=".43"/><g transform="translate(59 48)"><path d="M35 264h500" stroke="#536B7E" stroke-width="11"/><path d="M67 109h422l-34 151H101z" fill="#607E89" stroke="#3D5B70" stroke-width="8"/><path d="M86 117h384l-20 67H105z" fill="#96B6AF"/><path d="M111 129h98v44h-98z" fill="#274F68"/><path d="M120 164l20-17 19 11 19-24 18 14" fill="none" stroke="#90D3C2" stroke-width="5"/><path d="M239 129h85v44h-85z" fill="#274F68"/><circle cx="281" cy="151" r="16" fill="none" stroke="#F4CD84" stroke-width="5"/><path d="M348 129h97v44h-97z" fill="#274F68"/><path d="M363 145h67m-67 13h45" stroke="#9DD7C8" stroke-width="5"/><circle cx="178" cy="215" r="11" fill="#F3BB75"/><circle cx="218" cy="215" r="11" fill="#D77677"/><circle cx="258" cy="215" r="11" fill="#9DC9BC"/><path d="M342 208h92m-92 20h72" stroke="#D1D0AC" stroke-width="9" stroke-linecap="round"/><path d="M236 265h101l-16 35h-69z" fill="#C99878"/><path d="M245 265v-44q42-28 82 0v44" fill="#D9A885" stroke="#815F62" stroke-width="7"/></g></svg>
